<?xml version="1.0" encoding="utf-8"?>
<!-- Generator: Adobe Illustrator 17.0.2, SVG Export Plug-In . SVG Version: 6.00 Build 0)  -->
<!DOCTYPE svg PUBLIC "-//W3C//DTD SVG 1.1//EN" "http://www.w3.org/Graphics/SVG/1.1/DTD/svg11.dtd">
<svg version="1.1" id="Layer_1" xmlns="http://www.w3.org/2000/svg" xmlns:xlink="http://www.w3.org/1999/xlink" x="0px" y="0px"
	 width="2048px" height="2048px" viewBox="0 0 2048 2048" style="enable-background:new 0 0 2048 2048;" xml:space="preserve">
<style type="text/css">
	.st0{fill:#010101;}
</style>
<g id="XMLID_2_">
	<g>
		<path class="st0" d="M1123.416,1687.546H860.174V766.198h263.242v76.799c69.586-62.794,137.351-76.799,230.379-76.799
			c103.207,0,296.105,147.294,296.105,328.969v592.38h-263.242v-526.485c0-72.636-58.985-131.621-131.621-131.621
			s-131.621,58.985-131.621,131.621V1687.546z"/>
		<rect x="465.31" y="766.198" class="st0" width="263.242" height="921.348"/>
		<path class="st0" d="M596.931,371.335c72.636,0,131.621,58.985,131.621,131.621s-58.985,131.621-131.621,131.621
			S465.31,575.592,465.31,502.956S524.295,371.335,596.931,371.335z"/>
	</g>
	<g>
	</g>
</g>
</svg>
