<?xml version="1.0" encoding="utf-8"?>
<!-- Generator: Adobe Illustrator 17.0.2, SVG Export Plug-In . SVG Version: 6.00 Build 0)  -->
<!DOCTYPE svg PUBLIC "-//W3C//DTD SVG 1.1//EN" "http://www.w3.org/Graphics/SVG/1.1/DTD/svg11.dtd">
<svg version="1.1" id="Layer_1" xmlns="http://www.w3.org/2000/svg" xmlns:xlink="http://www.w3.org/1999/xlink" x="0px" y="0px"
	 width="187.025px" height="34.411px" viewBox="0 0 187.025 34.411" style="enable-background:new 0 0 187.025 34.411;"
	 xml:space="preserve">
<style type="text/css">
	.st0{fill:#FFFFFF;}
</style>
<g>
	<rect y="22.94" class="st0" width="11.469" height="11.471"/>
	<path class="st0" d="M21.709,0.597h0.002C20.278,0.209,18.764,0,17.206,0H0v21.713h11.469V11.471h10.24V0.597z"/>
	<path class="st0" d="M22.94,0.978v10.491h10.491C31.705,6.582,27.829,2.707,22.94,0.978z"/>
	<path class="st0" d="M22.94,12.697L22.94,12.697v4.515c-0.004,3.162-2.57,5.728-5.734,5.728H12.7v11.471h4.506
		c9.502,0,17.206-7.703,17.206-17.206c0-1.556-0.206-3.07-0.597-4.508H22.94z"/>
	<rect x="56.729" y="8.964" class="st0" width="1.734" height="17"/>
	<path class="st0" d="M81.646,12.48c-0.35-0.238-0.761-0.41-1.232-0.518c-0.472-0.107-0.978-0.161-1.519-0.161h-3.64v9.912h2.394
		v-3.737h1.19c0.513,0,1.008-0.057,1.484-0.168c0.476-0.113,0.896-0.29,1.26-0.533c0.364-0.242,0.653-0.562,0.868-0.959
		c0.215-0.396,0.322-0.884,0.322-1.463c0-0.568-0.101-1.047-0.301-1.435S81.997,12.719,81.646,12.48z M80.239,15.449
		c-0.093,0.154-0.222,0.277-0.385,0.371c-0.164,0.093-0.348,0.158-0.553,0.195c-0.205,0.037-0.42,0.057-0.644,0.057h-1.008v-2.338
		h1.05c0.215,0,0.422,0.014,0.623,0.041c0.201,0.028,0.38,0.084,0.539,0.168s0.285,0.201,0.378,0.351
		c0.093,0.15,0.14,0.341,0.14,0.573C80.379,15.101,80.332,15.295,80.239,15.449z"/>
	<path class="st0" d="M91.243,16.492c0.364-0.457,0.546-1.022,0.546-1.694c0-0.569-0.107-1.046-0.322-1.429
		c-0.215-0.382-0.502-0.689-0.861-0.924c-0.359-0.232-0.766-0.398-1.218-0.496c-0.452-0.098-0.917-0.147-1.393-0.147h-3.78v9.912
		h2.338v-3.935h0.816l2.152,3.935h2.8l-2.59-4.242C90.375,17.275,90.879,16.949,91.243,16.492z M89.262,15.456
		c-0.108,0.159-0.246,0.28-0.415,0.364s-0.356,0.143-0.563,0.174c-0.207,0.033-0.408,0.05-0.605,0.05H86.54v-2.31h1.28
		c0.178,0,0.363,0.014,0.556,0.041c0.192,0.028,0.366,0.082,0.521,0.162c0.155,0.078,0.282,0.191,0.38,0.336
		c0.099,0.145,0.148,0.333,0.148,0.566C89.423,15.092,89.369,15.297,89.262,15.456z"/>
	<path class="st0" d="M102.296,12.935c-0.48-0.447-1.052-0.793-1.715-1.035c-0.662-0.243-1.381-0.365-2.155-0.365
		c-0.775,0-1.491,0.122-2.15,0.365c-0.658,0.242-1.227,0.588-1.708,1.035c-0.48,0.448-0.856,0.992-1.127,1.631
		c-0.271,0.64-0.406,1.356-0.406,2.149c0,0.784,0.135,1.501,0.406,2.149c0.271,0.648,0.646,1.203,1.127,1.666
		c0.481,0.461,1.05,0.818,1.708,1.07c0.659,0.252,1.375,0.379,2.15,0.379c0.774,0,1.493-0.127,2.155-0.379
		c0.663-0.252,1.234-0.609,1.715-1.07c0.481-0.463,0.856-1.018,1.128-1.666c0.271-0.648,0.405-1.365,0.405-2.149
		c0-0.793-0.135-1.51-0.405-2.149C103.152,13.928,102.777,13.384,102.296,12.935z M101.058,17.955
		c-0.141,0.378-0.336,0.702-0.588,0.973c-0.252,0.271-0.551,0.482-0.896,0.637c-0.345,0.155-0.728,0.231-1.147,0.231
		c-0.421,0-0.804-0.077-1.148-0.231c-0.346-0.154-0.642-0.365-0.889-0.637c-0.248-0.271-0.441-0.595-0.581-0.973
		c-0.14-0.379-0.21-0.791-0.21-1.239c0-0.429,0.067-0.831,0.203-1.204c0.135-0.373,0.329-0.693,0.581-0.959
		c0.253-0.266,0.551-0.477,0.896-0.63c0.345-0.153,0.728-0.231,1.148-0.231s0.805,0.078,1.154,0.231
		c0.351,0.153,0.648,0.364,0.896,0.63c0.247,0.266,0.44,0.586,0.581,0.959c0.14,0.373,0.21,0.775,0.21,1.204
		C101.268,17.164,101.197,17.576,101.058,17.955z"/>
	<path class="st0" d="M112.888,12.859c-0.532-0.379-1.139-0.648-1.82-0.812c-0.682-0.163-1.372-0.245-2.072-0.245h-3.584v9.912
		h3.696c0.682,0,1.354-0.096,2.016-0.287c0.663-0.19,1.258-0.489,1.785-0.896c0.527-0.407,0.952-0.924,1.274-1.555
		c0.322-0.63,0.482-1.379,0.482-2.246c0-0.934-0.163-1.718-0.489-2.353C113.849,13.743,113.419,13.236,112.888,12.859z
		 M111.9,18.115c-0.182,0.374-0.425,0.673-0.728,0.896c-0.304,0.225-0.654,0.385-1.051,0.482c-0.396,0.099-0.81,0.148-1.238,0.148
		h-1.135v-5.797h1.19c0.41,0,0.81,0.047,1.197,0.141c0.387,0.093,0.732,0.25,1.036,0.469c0.303,0.219,0.546,0.514,0.728,0.882
		s0.273,0.833,0.273,1.394C112.174,17.281,112.082,17.742,111.9,18.115z"/>
	<path class="st0" d="M122.255,17.779h-0.002c0,0.271-0.032,0.527-0.098,0.771c-0.066,0.244-0.173,0.46-0.322,0.651
		c-0.149,0.191-0.343,0.343-0.581,0.455c-0.237,0.111-0.524,0.168-0.86,0.168s-0.623-0.057-0.861-0.168
		c-0.238-0.112-0.43-0.264-0.574-0.455c-0.144-0.191-0.252-0.408-0.321-0.651c-0.07-0.243-0.105-0.499-0.105-0.771v-5.978h-2.38
		v6.175c0,0.597,0.098,1.141,0.294,1.631c0.196,0.489,0.476,0.91,0.84,1.26c0.364,0.35,0.808,0.623,1.33,0.818
		c0.522,0.196,1.11,0.295,1.764,0.295c0.645,0,1.23-0.099,1.758-0.295c0.526-0.195,0.978-0.469,1.351-0.818
		c0.373-0.349,0.66-0.771,0.861-1.26c0.2-0.49,0.301-1.034,0.301-1.631v-6.175h-2.395V17.779z"/>
	<path class="st0" d="M132.781,19.502c-0.355,0.187-0.771,0.279-1.246,0.279c-0.411,0-0.789-0.074-1.134-0.223
		c-0.346-0.15-0.643-0.357-0.89-0.623c-0.247-0.267-0.44-0.586-0.581-0.959c-0.14-0.374-0.21-0.785-0.21-1.232
		c0-0.439,0.07-0.842,0.21-1.211c0.141-0.369,0.336-0.688,0.588-0.959s0.554-0.483,0.903-0.637c0.35-0.154,0.735-0.231,1.155-0.231
		c0.383,0,0.756,0.075,1.12,0.224c0.363,0.149,0.657,0.379,0.882,0.686l1.624-1.623c-0.42-0.477-0.969-0.838-1.646-1.086
		c-0.677-0.246-1.364-0.371-2.064-0.371c-0.756,0-1.461,0.122-2.114,0.365c-0.653,0.242-1.223,0.59-1.708,1.043
		c-0.485,0.452-0.866,1-1.141,1.645c-0.275,0.645-0.413,1.363-0.413,2.156c0,0.774,0.135,1.484,0.405,2.128
		c0.271,0.644,0.645,1.196,1.12,1.659c0.477,0.461,1.038,0.818,1.688,1.07c0.648,0.252,1.355,0.379,2.121,0.379
		c0.84,0,1.582-0.147,2.226-0.441c0.645-0.295,1.186-0.693,1.624-1.197l-1.666-1.568C133.42,19.072,133.136,19.315,132.781,19.502z"
		/>
	<polygon class="st0" points="135.287,13.846 138.087,13.846 138.087,21.714 140.481,21.714 140.481,13.846 143.281,13.846 
		143.281,11.802 135.287,11.802 	"/>
	<path class="st0" d="M154.67,17.262c-0.182-0.195-0.396-0.357-0.644-0.482c-0.247-0.127-0.511-0.213-0.791-0.26v-0.027
		c0.485-0.158,0.877-0.418,1.176-0.777s0.448-0.814,0.448-1.365c0-0.504-0.103-0.919-0.308-1.246
		c-0.206-0.326-0.472-0.586-0.799-0.777c-0.326-0.19-0.69-0.326-1.092-0.405c-0.402-0.079-0.793-0.119-1.176-0.119h-3.948v9.912
		h3.948c0.476,0,0.94-0.049,1.393-0.147c0.453-0.098,0.856-0.258,1.212-0.482c0.354-0.225,0.639-0.521,0.854-0.889
		c0.215-0.369,0.322-0.824,0.322-1.365c0-0.326-0.054-0.621-0.161-0.883C154.997,17.686,154.852,17.458,154.67,17.262z
		 M151.024,13.706c0.504,0,0.884,0.077,1.141,0.231c0.257,0.153,0.386,0.398,0.386,0.734c0,0.355-0.124,0.623-0.371,0.805
		c-0.248,0.182-0.596,0.273-1.043,0.273h-1.288v-2.043H151.024z M152.718,19.201c-0.104,0.154-0.236,0.272-0.399,0.357
		c-0.163,0.084-0.346,0.142-0.546,0.174c-0.201,0.033-0.395,0.049-0.581,0.049h-1.344v-2.268h1.33c0.513,0,0.924,0.08,1.231,0.238
		c0.309,0.158,0.462,0.443,0.462,0.854C152.871,18.848,152.82,19.047,152.718,19.201z"/>
	<polygon class="st0" points="159.255,11.802 156.847,11.802 156.847,21.714 163.091,21.714 163.091,19.628 159.255,19.628 	"/>
	<path class="st0" d="M172.59,12.935c-0.48-0.447-1.053-0.793-1.715-1.035c-0.663-0.243-1.382-0.365-2.156-0.365
		s-1.491,0.122-2.149,0.365c-0.657,0.242-1.227,0.588-1.708,1.035c-0.48,0.448-0.855,0.992-1.127,1.631
		c-0.271,0.64-0.405,1.356-0.405,2.149c0,0.784,0.135,1.501,0.405,2.149c0.271,0.648,0.646,1.203,1.127,1.666
		c0.481,0.461,1.051,0.818,1.708,1.07c0.658,0.252,1.375,0.379,2.149,0.379s1.493-0.127,2.156-0.379
		c0.662-0.252,1.234-0.609,1.715-1.07c0.48-0.463,0.856-1.018,1.127-1.666s0.406-1.365,0.406-2.149c0-0.793-0.136-1.51-0.406-2.149
		C173.446,13.928,173.07,13.384,172.59,12.935z M171.351,17.955c-0.14,0.378-0.336,0.702-0.588,0.973s-0.551,0.482-0.896,0.637
		c-0.346,0.154-0.729,0.231-1.148,0.231c-0.419,0-0.803-0.077-1.148-0.231c-0.345-0.154-0.642-0.365-0.889-0.637
		c-0.247-0.271-0.44-0.595-0.581-0.973c-0.14-0.379-0.21-0.791-0.21-1.239c0-0.429,0.067-0.831,0.203-1.204
		c0.135-0.373,0.329-0.693,0.581-0.959c0.252-0.266,0.551-0.477,0.896-0.63c0.346-0.153,0.729-0.231,1.148-0.231
		s0.805,0.078,1.155,0.231c0.35,0.153,0.648,0.364,0.896,0.63c0.248,0.266,0.441,0.586,0.581,0.959
		c0.141,0.373,0.21,0.775,0.21,1.204C171.56,17.164,171.491,17.576,171.351,17.955z"/>
	<path class="st0" d="M180.423,15.863v1.931h1.89V19.6c-0.215,0.094-0.447,0.161-0.699,0.203s-0.519,0.062-0.799,0.062
		c-0.485,0-0.917-0.076-1.295-0.23s-0.695-0.369-0.952-0.645c-0.256-0.274-0.45-0.604-0.58-0.986
		c-0.131-0.383-0.196-0.803-0.196-1.26c0-0.448,0.072-0.861,0.217-1.239c0.145-0.378,0.348-0.704,0.609-0.979
		c0.261-0.275,0.569-0.49,0.924-0.645c0.355-0.155,0.742-0.23,1.162-0.23c0.485,0,0.919,0.086,1.302,0.258
		c0.383,0.174,0.69,0.395,0.924,0.666l1.512-1.723c-0.42-0.4-0.966-0.721-1.638-0.959s-1.399-0.357-2.184-0.357
		c-0.756,0-1.461,0.122-2.114,0.365c-0.653,0.242-1.223,0.59-1.708,1.043c-0.485,0.452-0.866,1-1.141,1.645
		c-0.275,0.645-0.413,1.363-0.413,2.156c0,0.783,0.135,1.496,0.405,2.135c0.271,0.639,0.646,1.188,1.127,1.645
		c0.481,0.458,1.055,0.812,1.723,1.064c0.667,0.252,1.397,0.378,2.19,0.378c0.766,0,1.473-0.079,2.121-0.237
		c0.648-0.159,1.216-0.365,1.701-0.617v-5.25H180.423z"/>
</g>
</svg>
