<?xml version="1.0" encoding="utf-8"?>
<!-- Generator: Adobe Illustrator 17.0.2, SVG Export Plug-In . SVG Version: 6.00 Build 0)  -->
<!DOCTYPE svg PUBLIC "-//W3C//DTD SVG 1.1//EN" "http://www.w3.org/Graphics/SVG/1.1/DTD/svg11.dtd">
<svg version="1.1" id="Layer_1" xmlns="http://www.w3.org/2000/svg" xmlns:xlink="http://www.w3.org/1999/xlink" x="0px" y="0px"
	 width="2048px" height="2048px" viewBox="0 0 2048 2048" style="enable-background:new 0 0 2048 2048;" xml:space="preserve">
<style type="text/css">
	.st0{fill:#010101;}
</style>
<g>
	<g id="XMLID_1_">
		<g>
			<path class="st0" d="M1857.933,537.735c-43.709,65.94-99.476,123.968-163.72,170.314c0.565,14.13,0.942,28.26,0.942,42.579
				c0,435.206-330.455,936.918-934.469,936.918c-185.575,0-358.15-54.448-503.407-147.895c25.623,3.014,51.81,4.71,78.375,4.71
				c153.924,0,295.601-52.564,407.888-140.924c-143.75-2.638-265.08-97.78-306.905-228.719c19.97,3.768,40.695,5.84,61.796,5.84
				c29.956,0,58.97-3.956,86.476-11.492c-150.156-30.333-263.385-163.344-263.385-322.919c0-1.319,0-2.826,0-4.145
				c44.274,24.681,94.954,39.564,148.837,41.26c-88.172-58.97-146.199-159.764-146.199-274.123
				c0-60.288,16.202-116.997,44.463-165.604c162.025,199.14,403.932,330.267,676.925,344.02
				c-5.652-24.115-8.478-49.173-8.478-74.984c0-181.807,147.141-329.325,328.383-329.325c94.389,0,179.923,39.941,239.834,103.997
				c74.795-14.695,145.069-42.202,208.56-79.882c-24.492,76.868-76.679,141.489-144.504,182.184
				C1735.849,581.633,1799.152,563.923,1857.933,537.735z"/>
		</g>
		<g>
		</g>
	</g>
</g>
</svg>
